<svg xmlns="http://www.w3.org/2000/svg" viewBox="0 0 64 64" width="64" height="64">
    <title>Open UaExplorer session file</title>
    <path d="M10 6a3 3 0 0 1 3-3h27L54 17v41a3 3 0 0 1-3 3H13a3 3 0 0 1-3-3z"
          fill="#f2f4f8" stroke="#7c8aa5" stroke-width="2" stroke-linejoin="round"/>
    <path d="M40 3 54 17H43a3 3 0 0 1-3-3z"
          fill="#e7eaf1" stroke="#7c8aa5" stroke-width="2" stroke-linejoin="round"/>
    <g stroke="#0a84e6" stroke-width="1.8" stroke-linecap="round">
        <path d="M32 40v8.5"/>
        <path d="M17 48.5h30"/>
    </g>
    <g fill="#0a84e6">
        <circle cx="17" cy="48.5" r="2.5"/>
        <circle cx="32" cy="48.5" r="3.1"/>
        <circle cx="47" cy="48.5" r="2.5"/>
    </g>
    <g fill="#1e2941">
        <rect x="19" y="21" width="26" height="6" rx="2.5"/>
        <rect x="19" y="28.5" width="26" height="6" rx="2.5"/>
        <rect x="19" y="36" width="26" height="6" rx="2.5"/>
    </g>
    <g fill="#22c3f5">
        <circle cx="22.6" cy="24" r="1.4"/>
        <circle cx="22.6" cy="31.5" r="1.4"/>
        <circle cx="22.6" cy="39" r="1.4"/>
        <rect x="37.8" y="23" width="0.9" height="2" rx="0.45"/>
        <rect x="39.9" y="23" width="0.9" height="2" rx="0.45"/>
        <rect x="42" y="23" width="0.9" height="2" rx="0.45"/>
        <rect x="37.8" y="30.5" width="0.9" height="2" rx="0.45"/>
        <rect x="39.9" y="30.5" width="0.9" height="2" rx="0.45"/>
        <rect x="42" y="30.5" width="0.9" height="2" rx="0.45"/>
        <rect x="37.8" y="38" width="0.9" height="2" rx="0.45"/>
        <rect x="39.9" y="38" width="0.9" height="2" rx="0.45"/>
        <rect x="42" y="38" width="0.9" height="2" rx="0.45"/>
    </g>
</svg>
