<svg xmlns="http://www.w3.org/2000/svg" viewBox="0 0 16 16" width="16" height="16">
    <title>Open UaExplorer session file</title>
    <defs>
        <linearGradient id="screen" x1="2" y1="2" x2="14" y2="12" gradientUnits="userSpaceOnUse">
            <stop stop-color="#55c1f4"/>
            <stop offset="1" stop-color="#2875ef"/>
        </linearGradient>
    </defs>

    <rect x="1" y="1" width="14" height="11" rx="2" fill="url(#screen)"/>
    <g transform="translate(3.68 2.18) scale(.36)" fill="none" stroke="#ffffff" stroke-width="2.8"
       stroke-linecap="round" stroke-linejoin="round">
        <path d="M10 13a5 5 0 0 0 7.54.54l3-3a5 5 0 0 0-7.07-7.07l-1.72 1.71"/>
        <path d="M14 11a5 5 0 0 0-7.54-.54l-3 3a5 5 0 0 0 7.07 7.07l1.71-1.71"/>
    </g>

    <rect x="7" y="12" width="2" height="1.5" fill="#4b566a"/>
    <rect x="4" y="13.25" width="8" height="1.75" rx=".85" fill="#4b566a"/>
</svg>
