<svg xmlns="http://www.w3.org/2000/svg" viewBox="0 0 64 64" width="64" height="64">
    <title>Open UaExplorer session file</title>
    <defs>
        <linearGradient id="paper" x1="10" y1="4" x2="54" y2="60" gradientUnits="userSpaceOnUse">
            <stop stop-color="#ffffff"/>
            <stop offset="1" stop-color="#f4f6fa"/>
        </linearGradient>
        <linearGradient id="fold" x1="42" y1="5" x2="51" y2="20" gradientUnits="userSpaceOnUse">
            <stop stop-color="#eef1f6"/>
            <stop offset="1" stop-color="#ffffff"/>
        </linearGradient>
        <linearGradient id="screen" x1="20" y1="22" x2="44" y2="45" gradientUnits="userSpaceOnUse">
            <stop stop-color="#5bc8f5"/>
            <stop offset="1" stop-color="#2474f1"/>
        </linearGradient>
        <linearGradient id="dark" x1="25" y1="45" x2="40" y2="57" gradientUnits="userSpaceOnUse">
            <stop stop-color="#657083"/>
            <stop offset="1" stop-color="#30394a"/>
        </linearGradient>
        <linearGradient id="slider" x1="18" y1="56" x2="46" y2="56" gradientUnits="userSpaceOnUse">
            <stop stop-color="#70cdf6"/>
            <stop offset="1" stop-color="#176cf0"/>
        </linearGradient>
    </defs>

    <path d="M13 3.5h26.2c1 0 1.7.4 2.4 1.1l11.8 12.2c.7.7 1.1 1.6 1.1 2.6V58a3 3 0 0 1-3 3h-39a3 3 0 0 1-3-3V7A3.5 3.5 0 0 1 13 3.5z"
          fill="url(#paper)" stroke="#d1d4d9" stroke-width="1.1" stroke-linejoin="round"/>
    <path d="M40 4v10.2a4.3 4.3 0 0 0 4.3 4.3H54L40 4z" fill="url(#fold)"/>
    <path d="M40 4v10.2a4.3 4.3 0 0 0 4.3 4.3H54"
          fill="none" stroke="#c4c8ce" stroke-width="1.1" stroke-linecap="round"/>

    <rect x="17" y="21.5" width="30" height="23" rx="4" fill="url(#screen)"/>
    <g transform="translate(22.2 23.2) scale(.82)" fill="none" stroke="#ffffff" stroke-width="2.8"
       stroke-linecap="round" stroke-linejoin="round">
        <path d="M10 13a5 5 0 0 0 7.54.54l3-3a5 5 0 0 0-7.07-7.07l-1.72 1.71"/>
        <path d="M14 11a5 5 0 0 0-7.54-.54l-3 3a5 5 0 0 0 7.07 7.07l1.71-1.71"/>
    </g>

    <path d="M28.5 44.5h7v3h-7z" fill="url(#dark)"/>
    <rect x="22" y="46.5" width="20" height="3" rx="1.5" fill="url(#dark)"/>

    <rect x="18" y="53.3" width="28" height="1.4" rx=".7" fill="url(#slider)"/>
    <rect x="28.5" y="50.5" width="7" height="7" rx="2.2" fill="url(#dark)"/>
    <rect x="30.2" y="52.2" width="3.6" height="3.6" rx=".8" fill="url(#screen)"/>
</svg>
